<svg width="196" height="151" viewBox="0 0 196 151" fill="none" xmlns="http://www.w3.org/2000/svg">
<path fill-rule="evenodd" clip-rule="evenodd" d="M157.382 12.6635C171.469 12.8915 182.637 24.571 182.196 38.6085L179.782 114.581C179.34 128.626 167.438 139.92 153.344 139.693C139.249 139.465 128.088 127.785 128.53 113.748L130.943 37.7675C131.385 23.7379 143.287 12.4356 157.382 12.6635Z" fill="#68DAB4"/>
<path fill-rule="evenodd" clip-rule="evenodd" d="M158.644 1.37703L159.125 1.38489C169.118 1.69928 178.055 5.97498 184.451 12.6715C190.832 19.3444 194.689 28.446 194.524 38.4042C194.524 63.4296 192.899 89.7912 192.102 114.95C191.779 125.066 187.362 134.175 180.492 140.691C173.638 147.199 164.307 151.16 154.156 150.995L153.588 150.979C143.595 150.665 134.651 146.389 128.262 139.7C121.881 133.028 118.024 123.934 118.19 113.968C118.19 88.9423 119.814 62.5729 120.611 37.4218C120.934 27.3063 125.351 18.1969 132.221 11.6811C139.075 5.17329 148.406 1.21198 158.557 1.37703H158.644ZM158.415 23.9659L158.108 23.958C154.195 23.9187 150.567 25.4907 147.862 28.0608C145.149 30.6388 143.39 34.2071 143.271 38.137L140.85 114.416C140.811 118.157 142.286 121.584 144.699 124.122C147.128 126.661 150.52 128.288 154.306 128.406L154.613 128.414C158.526 128.453 162.154 126.881 164.859 124.311C167.58 121.725 169.331 118.165 169.45 114.243L171.871 37.9641C171.91 34.2229 170.443 30.796 168.022 28.2652C165.593 25.7108 162.201 24.0838 158.415 23.9659Z" fill="#4C9D8F"/>
<path fill-rule="evenodd" clip-rule="evenodd" d="M173.748 16.4046C185.004 24.8539 187.37 41.0213 178.804 52.1743L119.515 129.38C110.949 140.533 94.8824 142.876 83.6192 134.426C72.356 125.977 69.9898 109.81 78.5634 98.6568L137.853 21.4506C146.418 10.2976 162.485 7.95544 173.748 16.4046Z" fill="#68DAB4"/>
<path fill-rule="evenodd" clip-rule="evenodd" d="M180.594 7.42129L180.752 7.53919H180.8C188.797 13.6383 193.632 22.4255 194.957 31.6843C196.282 40.9588 194.082 50.7363 187.993 58.7925L187.945 58.8318L187.827 58.989V59.0362L128.538 136.234C122.362 144.275 113.473 149.132 104.095 150.453C94.7719 151.765 84.9521 149.541 76.8203 143.45L76.7729 143.403L76.6152 143.285H76.5679C68.5701 137.185 63.7351 128.398 62.41 119.14C61.0849 109.865 63.2934 100.088 69.3746 92.0313V91.9842L69.4929 91.827L69.5402 91.7798L128.83 14.5815C135.013 6.541 143.895 1.68369 153.273 0.363251C162.595 -0.949324 172.415 1.27498 180.547 7.36627L180.594 7.42129ZM167.036 25.4987L166.957 25.4358L166.949 25.4437C163.834 23.1093 160.024 22.2683 156.38 22.7792C152.736 23.2901 149.282 25.1843 146.868 28.3203L87.6181 105.471L87.626 105.479L87.5077 105.637L87.4919 105.621C85.2045 108.655 84.3921 112.388 84.9048 115.964C85.4175 119.572 87.2789 122.975 90.355 125.325L90.3392 125.341L90.426 125.404L90.4339 125.396C93.5494 127.73 97.359 128.571 100.995 128.06C104.639 127.549 108.102 125.655 110.507 122.519L169.797 45.3131L169.82 45.3288L169.883 45.2502L169.876 45.2423C172.171 42.2006 172.999 38.4594 172.486 34.8675C171.974 31.2599 170.104 27.8566 167.036 25.5144V25.4987Z" fill="#4C9D8F"/>
<path fill-rule="evenodd" clip-rule="evenodd" d="M40.1834 12.6635C54.2782 12.8915 65.4467 24.571 64.9971 38.6085L62.5836 114.581C62.134 128.626 50.2398 139.92 36.1451 139.693C22.0503 139.465 10.8897 127.785 11.3314 113.748L13.7449 37.7675C14.2024 23.7379 26.0966 12.4356 40.1834 12.6635Z" fill="white"/>
<path fill-rule="evenodd" clip-rule="evenodd" d="M40.4516 1.37703L40.9327 1.38489C50.926 1.69928 59.8624 5.97498 66.2591 12.6715C72.6557 19.3444 76.5048 28.4381 76.3391 38.3964C76.3391 63.4218 74.7143 89.7833 73.9177 114.942C73.5943 125.058 69.1774 134.167 62.3075 140.683C55.4534 147.191 46.1226 151.152 35.9716 150.987L35.4037 150.971C25.4104 150.657 16.4661 146.381 10.0773 139.693C3.69642 133.02 -0.160507 123.926 0.00512835 113.96C0.00512835 88.9345 1.62993 62.5651 2.42655 37.4139C2.74205 27.3063 7.16686 18.2047 14.0368 11.6811C20.883 5.17329 30.2217 1.21198 40.3648 1.37703H40.4516ZM40.2307 23.9659L39.931 23.958C36.0189 23.9188 32.3828 25.4907 29.6774 28.0608C26.9642 30.6388 25.2053 34.2071 25.087 38.137L22.6656 114.416C22.6261 118.157 24.1011 121.584 26.5225 124.122C28.9518 126.661 32.3434 128.288 36.1214 128.406L36.429 128.414C40.3412 128.453 43.9694 126.881 46.6826 124.311C49.3959 121.725 51.1469 118.165 51.2731 114.243L53.6945 37.9641C53.7339 34.2229 52.2669 30.796 49.8455 28.2652C47.4004 25.7108 44.0088 24.0838 40.2307 23.9659Z" fill="#4C9D8F"/>
<path fill-rule="evenodd" clip-rule="evenodd" d="M25.0555 16.4046C13.7923 24.8539 11.4261 41.0213 19.9996 52.1743L79.289 129.38C87.8547 140.533 103.921 142.876 115.184 134.426C126.448 125.977 128.814 109.81 120.248 98.6568L60.943 21.4506C52.3773 10.2976 36.3107 7.95544 25.0555 16.4046Z" fill="white"/>
<path fill-rule="evenodd" clip-rule="evenodd" d="M31.8464 25.4357L31.7597 25.4986L31.7754 25.5222C28.6994 27.8644 26.8379 31.2755 26.3253 34.8753C25.8126 38.4593 26.6329 42.2084 28.936 45.2501L28.9281 45.258L28.9912 45.3366L29.0149 45.3209L88.3042 122.527C90.7178 125.663 94.1724 127.557 97.8164 128.068C101.46 128.579 105.27 127.738 108.378 125.404L108.385 125.412L108.472 125.349L108.456 125.333C111.533 122.991 113.394 119.58 113.907 115.972C114.419 112.396 113.599 108.662 111.32 105.629L111.304 105.644L111.186 105.487L111.193 105.479L51.9277 28.3124C49.5141 25.1764 46.0595 23.2822 42.4155 22.7713C38.7715 22.2604 34.9619 23.1093 31.8464 25.4357ZM18.0514 7.547L18.217 7.4291L18.2565 7.38194C26.3805 1.28279 36.2002 -0.933658 45.5231 0.371058C54.8933 1.69149 63.7903 6.54881 69.9661 14.5893L129.256 91.7876L129.303 91.8348L129.429 91.992V92.0391C135.51 100.095 137.719 109.873 136.386 119.147C135.068 128.398 130.226 137.193 122.228 143.292H122.181L122.023 143.41L121.975 143.458C113.851 149.557 104.024 151.773 94.7009 150.461C85.3307 149.148 76.4416 144.283 70.2579 136.242L10.9764 59.044V58.9968L10.8581 58.8396L10.8108 58.8003C4.72174 50.7441 2.52116 40.9587 3.84624 31.6842C5.17132 22.4333 10.0142 13.6461 18.0041 7.547H18.0514Z" fill="#4C9D8F"/>
<path d="M38.8097 66.878L52.6684 84.4648L85.2736 58.9513L71.4149 41.3644L38.8097 66.878Z" fill="#4C9D8F"/>
<path d="M49.5142 35.1813C48.0787 36.2973 46.6353 37.4056 45.1998 38.5216C45.0657 38.6238 44.9316 38.7339 44.7975 38.836C43.9851 37.7907 43.1727 36.7453 42.3525 35.7079C41.9423 35.1813 41.5322 34.6625 41.1299 34.1359C40.9958 33.963 40.7277 33.9316 40.5541 34.0652C39.6629 34.7568 38.7637 35.4485 37.8724 36.1402C37.6989 36.2738 37.6674 36.541 37.8014 36.7139C38.9215 38.1444 40.0336 39.5827 41.1536 41.0132C41.2561 41.1468 41.3665 41.2804 41.4691 41.414C40.4201 42.2236 39.371 43.0331 38.3299 43.8505C37.8014 44.2593 37.2809 44.668 36.7524 45.0688C36.5789 45.2024 36.5474 45.4697 36.6814 45.6426C37.3755 46.5307 38.0696 47.4267 38.7637 48.3149C38.8426 48.4171 38.9372 48.4642 39.0319 48.4721C39.1265 48.4878 39.2369 48.4721 39.3395 48.3935C40.775 47.2774 42.2184 46.1692 43.6539 45.0531C43.788 44.9509 43.922 44.8409 44.0561 44.7387C44.8685 45.784 45.6809 46.8294 46.5012 47.8669C46.9114 48.3935 47.3215 48.9122 47.7238 49.4388C47.8578 49.6117 48.126 49.6432 48.2995 49.5096C49.1908 48.8179 50.09 48.1262 50.9812 47.4346C51.0838 47.356 51.1311 47.2617 51.139 47.1674C51.1548 47.073 51.139 46.963 51.0601 46.8608C49.9401 45.4304 48.828 43.992 47.708 42.5616C47.6055 42.4279 47.495 42.2943 47.3925 42.1607C48.4415 41.3512 49.4905 40.5416 50.5317 39.7242C51.0601 39.3155 51.5807 38.9068 52.1091 38.5059C52.2827 38.3723 52.3142 38.1051 52.1801 37.9322C51.486 37.044 50.792 36.148 50.0979 35.2599C49.9559 35.0791 49.6956 35.0398 49.5142 35.1813Z" fill="#4C9D8F"/>
</svg>
